<svg xmlns="http://www.w3.org/2000/svg" viewBox="0 0 140.78 26.39"><path d="M53.86 7.33h-3.29v8c0 2.26-.91 3.4-2.76 3.4a2.18 2.18 0 0 1-1.63-.66 3.35 3.35 0 0 1-.7-2.42V7.33h-3.27v8.58A5.54 5.54 0 0 0 43.53 20a4.55 4.55 0 0 0 3.59 1.27 4.92 4.92 0 0 0 3.49-1.89v1.53h3.26V7.33zM105.1 11a3.48 3.48 0 0 0-1-2.54A5.59 5.59 0 0 0 99.87 7c-2 0-5.23.41-5.61 4.12h3.29c0-1.73 2.15-1.58 2.15-1.58a2.83 2.83 0 0 1 1.8.6 1.41 1.41 0 0 1 .5 1.15c0 .92-.4 1.36-3.49 1.66-2.37.23-5.21.88-5.21 4.3 0 2.41 2 4.08 4.69 4.08a4.85 4.85 0 0 0 4.11-1.63l.16 1.27h3.16v-.51c-.41-.32-.32-1.68-.32-1.68zm-8.53 6.12c-.08-1 .51-1.76 2.06-2 .41-.08.83-.11 1.23-.18a4.69 4.69 0 0 0 2-.68v2.08c0 1.69-1.67 2.32-2.89 2.3s-2.28-.47-2.37-1.49zm-15.92 7.5V7.34h-3.13V9a4.49 4.49 0 0 0-3.75-2c-3.92 0-6.19 2.77-6.19 7.24a7.9 7.9 0 0 0 2 5.56 4.94 4.94 0 0 0 3.73 1.53 5.05 5.05 0 0 0 4.07-2v5.37zm-6.48-6a2.71 2.71 0 0 1-2.1-.88 5.05 5.05 0 0 1-1.21-3.61 5.13 5.13 0 0 1 1.29-3.61 2.65 2.65 0 0 1 2-.9c1.92 0 2.93 1.24 3.23 3.48 0 .33.06 1.57 0 1.8-.22 2.4-1.24 3.72-3.27 3.72zM25.7 20.94h3.57v-8.08h7.48v8.08h3.57V2.79h-3.57v6.94h-7.48V2.79H25.7zm35.47-2.27c-1.4 0-2.51-.57-2.71-1.8h-3.31c.15 3.44 3.6 4.48 6 4.42s3.46-.61 4.52-1.68a3.84 3.84 0 0 0 1.13-2.81c0-2.66-2-3.53-4.3-4.07l-.71-.17c-1.78-.34-3.24-.7-3.16-1.73s1.2-1.25 2.07-1.28a1.94 1.94 0 0 1 2.12 1.16h3.42c-.36-2.64-2.78-3.78-5.35-3.71s-5.52 1-5.52 4c0 2.76 1.9 3.6 4.19 4.1l.92.2c1.71.36 3 .7 3 1.83s-.93 1.58-2.34 1.61zm33-11.34h-3.41L87.85 17.8l-3-10.47h-3.57L86 20.94h3.52l4.65-13.61zm16 7.11A5.41 5.41 0 0 1 111 11a3.14 3.14 0 0 1 2.32-1.29 5.29 5.29 0 0 1 1.42.21V7a5.49 5.49 0 0 0-1.82-.06A4.45 4.45 0 0 0 110 9.71V7.33h-3.1v13.61h3.3v-6.5zm17.4-2.8c0-2.91-1.78-4.67-4.8-4.67a4.41 4.41 0 0 0-3.8 2.4v-2h-3.1v13.57h3.27v-8a3.46 3.46 0 0 1 .82-2.5 3 3 0 0 1 2.25-.82c1.52 0 2 .89 2.09 2.84v8.51h3.27zM11.05 23.22a16.18 16.18 0 0 1-4.72-.35 3.11 3.11 0 0 1-1.81-1.29c-1-1.81-1-5.22-1-6.85s0-4.54 1-6.33a3 3 0 0 1 1.81-1.3 17.13 17.13 0 0 1 4.72-.33 17.08 17.08 0 0 1 4.67.33 2.77 2.77 0 0 1 1.74 1.3c1.14 1.79 1.14 4.89 1.14 6.52s0 4.85-1.14 6.66a2.8 2.8 0 0 1-1.74 1.28 15.7 15.7 0 0 1-4.67.36zm0-7.33c2.16 0 2.12 0 2.12.71v4.46h3V8.71h-3v3.71c0 .73 0 .73-2.12.73s-2.2 0-2.2-.73V8.71h-3v12.35h3V16.6c0-.71 0-.71 2.2-.71zm0 10.49c2.2 0 6.2.2 8.48-2.32a8.34 8.34 0 0 0 1.94-3.79 16.51 16.51 0 0 0 .53-4.11 18.7 18.7 0 0 0-.31-4.84c-.44-2.32-.79-3.65-1.87-4.73 1.43-.73 1.63-2.88 1.43-4.33 0 0-1.1-.55-1.83-.82S17.33.82 17.33.82c0 1.15.13 2.89-.73 3.47s-3 0-3.39-1.11a7.54 7.54 0 0 1 0-2.92A10.76 10.76 0 0 0 11 0a9.36 9.36 0 0 0-2.16.26 9.73 9.73 0 0 1 0 2.92C8.47 4.29 6.33 4.8 5.47 4.29S4.74 2 4.74.82c0 0-1.39.34-2.25.66-.69.26-1.74.78-1.74.78-.22 1.45 0 3.6 1.43 4.33C1.11 7.67.75 9 .29 11.32A22.63 22.63 0 0 0 0 16.16a19.92 19.92 0 0 0 .51 4.11 8.19 8.19 0 0 0 2.09 3.79c2.4 2.46 6.23 2.32 8.4 2.32zM140.46 11c0-2.46-2.14-4-5.46-4-1.94 0-5.23.41-5.61 4.11h3.29c0-1.72 2.15-1.57 2.15-1.57a3.6 3.6 0 0 1 2 .59 1.49 1.49 0 0 1 .5 1.16c0 .92-.41 1.36-3.49 1.66-2.38.23-5.21.88-5.21 4.3 0 2.42 2 4.08 4.69 4.08a4.86 4.86 0 0 0 4.11-1.63l.16 1.27h3.16v-.52c-.41-.32-.32-1.67-.32-1.67V11zm-8.53 6.11c-.09-1 .5-1.75 2.06-2 .4-.08.82-.12 1.22-.18a4.66 4.66 0 0 0 2-.69v2.09c0 1.68-1.67 2.32-2.89 2.3s-2.29-.47-2.37-1.5z" fill="#b01842" data-name="Слой 2"/></svg>