<svg xmlns="http://www.w3.org/2000/svg" viewBox="0 0 214.86 28.81"><defs><style>.cls-1{fill:#fff}</style></defs><g id="Слой_2" data-name="Слой 2"><g id="Grid"><path class="cls-1" d="M76.28 8.55l5.35-.06V.57H75.7l-1.19 1.75L73.42.57H62.14l-1 1.75-1-1.75H43.7L39.35 8V.57h-9.83v27.27h9.83V19l.42-.39 6.41 9.21h17.5l1.1-3.13h6.93l.9 3 10.61.07-.29-.76-6.65-18.45zM54.63 23.32l-7.32-10.86 7.31-11.28-.06 7.5 5.93.07-5.86 14.57zm13.6-5.95h-1.58l1.51-3.65.07.16 1.61 3.46zm96 10.47h23.11V20h-13v-2.34h11.36v-7.4h-11.38V7.71h13.15V.57h-23.24v27.27zm50.63-18.61v-.61a3.8 3.8 0 0 0-.29-1.36 9.79 9.79 0 0 0-3.35-5.17C209.35.67 206.87.6 204.55.57h-14.44v27.21l9.92.06v-9a15.3 15.3 0 0 1 2.42 0 1.62 1.62 0 0 1 .74.23c.46.28 1.29.77 1.32 1.26 1.13 3.26 0 4.68 1 7.46h8.77v-3c.49-4.07.49-8.27-2.41-9.31 1.64-.71 2.93-3.91 3-6.33zm-11.76 3h-3.16V8.16h2.77a2.05 2.05 0 1 1 .39 4.08zm-50.57-1.72h-5.73V.57H137v27.27h10v-9.92h5.51v9.92h9.38V.57h-9.38zm-44.79-3.25a9.9 9.9 0 0 0-3.35-5.17C102.49.67 100 .6 97.68.57h-14.4v27.21l9.89.06v-9a15.3 15.3 0 0 1 2.42 0 1.63 1.63 0 0 1 .77.23c.44.24 1.26.77 1.29 1.26 1.13 3.26 0 4.68 1 7.46h8.77v-3c.52-4.07.49-8.27-2.41-9.31 2.19-.93 3.7-6.2 2.77-8.3zm-11.51 5h-3.16v-4.1h2.81a2 2 0 1 1 .35 4.08zM14.73 2.9h-7.9l2.55 4.42H5.61L8 11.49H3.19l4.67 7.37 2.36 3.75 2.25 3.58.07.07 2.19-3.49 2.48-3.91 4.67-7.37h-4.83l2.42-4.17h-3.81l2.55-4.42zM9.35 4.45h6.22l-.84 1.1-.74 1-.52.74h-2.06l-.52-.74-.67-.94zM13.47 13l-1 1.39-.06.06-1-1.45zm-3.25-3.8h.25l1.33 2.29h-1.52l-.06-.13L8.64 9.2zm8.57 3.8l-3.19 4-.87 1-2.26 2.88-.09.09-2.16-2.74L9.19 17 6 13h2.86l.2.35 1.16 2 2.25 3.94.07.06 2.19-3.84L16 13.33l.22-.35zm-2.58-3.8l-1.48 2-.16.26h-1.29L14.6 9.2z"/><path class="cls-1" d="M12.47.57H0v28.24h24.94V.57zm11.53 1v26.14H.94V1.57zM126.24 16c.8 3.62-3.81 6.69-6.48 2.55-1.77-2.94-1.29-11.76 4.32-10.17 1.8.61 2.54 2.71 2.74 4.26l8.5-.06a32.25 32.25 0 0 0-.21-4.41C131.89-3.71 112.28-2 109 9.33a18.34 18.34 0 0 0 .7 11.34c1.71 4.88 6.48 6.88 11.51 7.17 7.54.39 13.59-1.95 14.43-10v-1.86z"/></g></g></svg>