<svg xmlns="http://www.w3.org/2000/svg" viewBox="0 0 181.92 24.39"><defs><style>.cls-1{fill:#ed1c24}</style></defs><g id="Слой_2" data-name="Слой 2"><g id="Grid"><path class="cls-1" d="M64.59 7.24h4.53V.48h-5L63.09 2 62.16.48h-9.55L51.79 2 50.92.48H37l-3.68 6.3V.48H25v23.09h8.32V16.1l.35-.32 5.43 7.79h14.82l.93-2.65h5.87l.76 2.54 9 .06-.25-.68-5.64-15.6zm-18.34 12.5l-6.19-9.19L46.25 1v6.35l5 .06-5 12.33zm11.52-5h-1.34l1.28-3.09.06.14 1.36 2.92zm81.28 8.86h19.57V17h-11v-2h9.64V8.69h-9.64V6.53h11.14V.48h-19.71v23.09zm42.87-15.78V7.3a3.38 3.38 0 0 0-.24-1.15 8.37 8.37 0 0 0-2.84-4.38c-1.58-1.2-3.68-1.26-5.65-1.29H161v23.04l8.41.05V16a13 13 0 0 1 2 0 1.3 1.3 0 0 1 .62.19c.39.24 1.09.65 1.12 1.06 1 2.77 0 4 .82 6.32h7.42v-2.51c.41-3.45.41-7-2-7.88 1.39-.6 2.48-3.31 2.56-5.36zm-10 2.54h-2.67V6.91h2.34a1.73 1.73 0 1 1 .41 3.45zm-42.77-1.45h-4.86V.48H116v23.09h8.48v-8.4h4.67v8.4h7.94V.48h-7.94zM91.22 6.15a8.31 8.31 0 0 0-2.84-4.38C86.77.57 84.67.51 82.71.48h-12.2v23.04l8.37.05V16a13 13 0 0 1 2 0 1.39 1.39 0 0 1 .66.19c.36.2 1.06.65 1.09 1.06 1 2.77 0 4 .82 6.32H91v-2.51c.44-3.45.41-7-2-7.88 1.86-.8 3.14-5.25 2.35-7zm-9.74 4.21h-2.67V6.91h2.37a1.73 1.73 0 1 1 .3 3.45zm-69-7.91h-6.7L7.94 6.2H4.75l2 3.53H2.7l4 6.24 2 3.17 1.91 3v.05l1.86-2.95 2.1-3.24 4-6.24h-4.13l2-3.53h-3.18l2.16-3.75zM7.91 3.77h5.27l-.71.93-.63.87-.43.63H9.66l-.44-.63-.57-.79zm3.5 7.23l-.85 1.17-.05.06L9.63 11zM8.65 7.79h.22L10 9.73H8.71l-.06-.11-1.34-1.83zM15.91 11l-2.7 3.42-.74.87-1.91 2.44-.08.08-1.83-2.34-.87-1.06L5.08 11H7.5l.17.3 1 1.7 1.91 3.33v.06l1.86-3.26 1.06-1.83.2-.3zm-2.18-3.2l-1.26 1.71-.14.22h-1.09l1.12-1.94z"/><path class="cls-1" d="M10.56.48H0v23.91h21.12V.48zm9.8.85v22.13H.79V1.33zm86.52 12.18c.69 3.06-3.22 5.66-5.48 2.16-1.5-2.49-1.09-10 3.66-8.62 1.52.52 2.15 2.3 2.31 3.61l7.21-.05a29 29 0 0 0-.18-3.74c-2.73-10-19.33-8.57-22.11 1a15.55 15.55 0 0 0 .59 9.6c1.45 4.13 5.49 5.83 9.75 6.07 6.38.33 11.51-1.65 12.22-8.49v-1.57z"/></g></g></svg>