<svg xmlns="http://www.w3.org/2000/svg" viewBox="0 0 223.01 52.39"><defs><style>.cls-1{fill:none}.cls-2{fill:#fff}</style></defs><g id="Слой_2" data-name="Слой 2"><g id="Grid"><path class="cls-1" d="M0 0h223v52.39H0z"/><path class="cls-2" d="M3.28 3h9.61v25.45h10.57v9.65H3.28zm35 35.12h-9.67V12.63l-10.56-.08V3h20.22z"/><path class="cls-2" d="M14.34 0h2.39v12.59h-2.39zM25 28.37h2.35v12.54H25V28.37zM50.65 1.7h8.17v37.93h-8.17zm68.61 10h8.09v2.77c2.72-2.61 4.37-3.23 8.54-3.48v6.34c-2.68.21-8.54 2.32-8.54 7.25v15.09h-8.09zm46.42 2.61V11.7h-8.13v28h8.13V22.32c-.13-2.52 7.05-6.58 7.14.58v16.77H181V20.38c-.06-8.25-7.48-11.31-15.32-6.09z"/><path class="cls-2" d="M143.73 11c-1.61-.12-3.22-.12-4.71-.16v6.38a23.29 23.29 0 0 1 4.71.16c1.81.29 3 .91 3 2.07v2a11.56 11.56 0 0 0-3-1.37 10 10 0 0 0-2.48-.29c-5.53 0-9.49 4.43-9.49 10a9.63 9.63 0 0 0 9.62 9.9 10.54 10.54 0 0 0 2.35-.21 9.13 9.13 0 0 0 3-1.15v1.36h8.13V19.42c0-6.58-5.61-8.07-11.14-8.45zm0 22.16a4.12 4.12 0 1 1 4.08-4.16 4.08 4.08 0 0 1-4.05 4.1zm56.44-31.54v12.46a10.14 10.14 0 0 0-4.49-1.91 8.58 8.58 0 0 0-1.45-.08c-6.48 0-11.76 6.05-11.76 13.46S187.71 39 194.19 39a8.51 8.51 0 0 0 1.45-.12 11.35 11.35 0 0 0 4.57-2.12v2.78h8.17V1.62zm-4.53 29.19a5.7 5.7 0 1 1 5.48-5.72 5.59 5.59 0 0 1-5.48 5.72zM88.23 27.66a12.28 12.28 0 0 0 .17-2.15c0-8.16-6.15-14.82-13.7-14.87h-.08c-7.55 0-13.74 6.67-13.74 14.87s6.19 14.83 13.74 14.83h.08c5.78-.05 10.73-4.06 12.71-9.53h-8.29A4.75 4.75 0 0 1 75 32.76h-.3a5.6 5.6 0 0 1-4.83-5.14h18.36zM70 22.65c.53-3.27 2.1-4.72 4.74-4.88h.17c2.72-.17 4.12 1.86 4.58 4.84h-9.53zm38.53-11v3a9.76 9.76 0 0 0-5.07-2.57 8.78 8.78 0 0 0-1.45-.12c-6.85 0-12.42 6-12.42 13.46s5.57 13.41 12.42 13.41h1.45a9.64 9.64 0 0 0 5.11-1.9c1.32 3.81-1.69 8.07-5.11 7.82a5.23 5.23 0 0 1-4-2.65H89.31c1.77 6.59 8 10.19 14.07 10.32 6.72.16 13.24-3.94 13.24-12.84v-27.9zm-5.15 19.95a5.8 5.8 0 0 1-5.57-6 5.58 5.58 0 1 1 11.14 0 5.78 5.78 0 0 1-5.57 6z"/><path class="cls-1" d="M108.45 14.66v-3h8.13v27.89m0 0c0 16.94-23.56 16.44-27.31 2.52m0 0h10.15m0 0c4.29 6.3 10.89.13 9.07-5.17a10.32 10.32 0 0 1-6.56 1.94c-6.85 0-12.42-6-12.42-13.41S95.08 12 101.93 12a9.4 9.4 0 0 1 6.52 2.69m-5.07 5.05a5.74 5.74 0 0 1 5.62 5.89 5.58 5.58 0 1 1-11.14 0 5.76 5.76 0 0 1 5.57-5.92"/><path d="M211.68 5a3.58 3.58 0 1 1 7.16 0 3.58 3.58 0 1 1-7.16 0zm3.59 4.44A4.43 4.43 0 1 0 210.79 5a4.42 4.42 0 0 0 4.48 4.42zm-.93-4.09h.88l1.35 2.21h.86L216 5.3a1.34 1.34 0 0 0 1.32-1.41c0-1-.59-1.45-1.8-1.45h-1.93v5.1h.77V5.33zm0-.65V3.1h1c.53 0 1.11.11 1.11.75s-.59.83-1.24.83z"/></g></g></svg>