<svg xmlns="http://www.w3.org/2000/svg" viewBox="0 0 142.24 27.97"><path d="M135.57 22.72L140.89 8H126.2a5.37 5.37 0 0 0-4.64 3.38l-4 11h-7.86l3.8-9.94h4l1.9-5.25h-3.93L118.18 0h-7l-2.58 7.15H104l-1.9 5.25h4.6l-3.63 9.94h-8l5.61-14.85h-6.85L88.3 22.68H82L80.2 17l10.21-9.21h-7.26l-8.23 7.4h-.63L79.61.51h-6.38l-8.06 22.21H59.3L64.58 8H49.93a5.46 5.46 0 0 0-4.68 3.38L41 23.06h-5.46L41 8H29l1.31-3.63H18.53L19.8.85H0v6.34h11.14L3.59 28h6.33l6.29-17.26h5.44L15.36 28h6.38l4.94-13.62h5.69L27.44 28h10.13l3.25-3.34c0 1.65.88 3.34 2.32 3.34H49l3.51-3.72C52.38 26 53.27 28 54.79 28h5.82l4.1-4-1.44 4h6.37l3.76-10.35h.72L77.33 28h6.79L88 23.91c-.17 1.82.76 3.93 2.33 3.93h8.48l3.93-4.31c-.34 1.86.58 4.31 2.27 4.31h8.49l3.67-4c-.3 1.82.63 4.15 2.28 4.15h5.82l3.51-3.72c-.09 1.73.8 3.72 2.32 3.72h11.18v-5.27zm-82.81-.12h-5l3.33-9.19h5zm76.27 0h-5l3.38-9.19h5z" fill="#b4282e" data-name="Слой 2"/></svg>