<svg xmlns="http://www.w3.org/2000/svg" viewBox="0 0 228.77 58.35"><defs><style>.cls-1{fill:#fff}</style></defs><g id="Слой_2" data-name="Слой 2"><g id="Grid"><path class="cls-1" d="M52.92 29.33h5.1v1h-5.1zm0-2h5.1v1h-5.1zm-15.12-2h9.61v1H37.8zm0-13.49h9.61v12.49H37.8zm15.12 13.49h5.1v1h-5.1zm-15.12 2h9.61v1H37.8zm25.83 4h-.43c0 .37.08.71.11 1h1.35a6.46 6.46 0 0 1-1.03-1zm-10.71 0h5.1v1h-5.1zm-15.12 0h9.61v1H37.8zm0-2h9.61v1H37.8zm50.78-12.07a3.5 3.5 0 0 0-3.15 1.48 8.24 8.24 0 0 0-1 4.45 8.35 8.35 0 0 0 1 4.48 3.47 3.47 0 0 0 3.17 1.52 3.41 3.41 0 0 0 3.13-1.51 8.44 8.44 0 0 0 1-4.49 8.25 8.25 0 0 0-1-4.44 3.5 3.5 0 0 0-3.15-1.49zm-21.17-.03a3.43 3.43 0 0 0-3 1.24 7.09 7.09 0 0 0-1 4.1v.59a8.37 8.37 0 0 0 1 4.6 3.42 3.42 0 0 0 3 1.4c2.44 0 3.66-2 3.66-6a8.64 8.64 0 0 0-.9-4.42 3.08 3.08 0 0 0-2.76-1.51zm115.11-5.93a5.85 5.85 0 0 0-5 2.22c-1.12 1.49-1.68 3.68-1.68 6.6s.55 5.11 1.66 6.59a5.8 5.8 0 0 0 5 2.21q6.63 0 6.63-8.8t-6.61-8.82zm-72.66 9.07a61.54 61.54 0 0 1-3 8.23h10.2V11.71h-5.31a61 61 0 0 1-1.89 8.66zm97.46-8.73h-2.52v7.75h1.82a6.09 6.09 0 0 0 3.82-1 3.54 3.54 0 0 0 1.27-2.94 3.65 3.65 0 0 0-1.06-2.87 5 5 0 0 0-3.33-.94zM80.39 29.2h-4.85a7.91 7.91 0 0 1-.53 1h6.06a8.78 8.78 0 0 1-.68-1zm16.98-1h3.87c.16-.33.32-.67.47-1h-4a8.4 8.4 0 0 1-.34 1zm37.19-1h13.88v1h-13.88zm-58.62 1h4a8.58 8.58 0 0 1-.38-1h-3.33c-.08.34-.18.68-.29 1zm23.06 3h-3.7a8 8 0 0 1-1.32 1h5zm23.58-4h6.44v1h-6.44zm76.68 4h-8.8a11.39 11.39 0 0 1-1.55 1h10.35zm-6.83-2a10.32 10.32 0 0 1-.73.88 1.36 1.36 0 0 1-.12.12h7.68v-1zm-66.36 2h2.96v1h-2.96zm48.44 0h-6.27l.74 1h7.08a11.39 11.39 0 0 1-1.55-1zm-30.45 0h4.39v1h-4.39zm17.94 0h-8.02v1h8.74l-.72-1zm3.29-4l.74 1h5.86c-.18-.32-.34-.66-.5-1zm-81.98 5a8.18 8.18 0 0 1-1.32-1h-7.7a7.08 7.08 0 0 1-1.05 1zm70.67-8H157l-3.02-4.22v4.22zm4.45 2l-.72-1h-3.73v1h4.45zm-32.36 13.06h102.71v1.03H126.07zm27.91-11.06h5.88l-.72-1h-5.16v1zm6.59 1h-6.59v1h7.31l-.72-1zm-16.51 0h4.39v1h-4.39zm49.52-2c-.15.34-.32.68-.5 1h6.18v-1zm-67.51 2h2.96v1h-2.96zm-29.85 1H99v-1h-2.12a9.6 9.6 0 0 1-.66 1zm71.28 0h5.89a1.36 1.36 0 0 1-.12-.12 10.32 10.32 0 0 1-.73-.88h-5.77zm37.3 3.01H186a17 17 0 0 1-7 0h-52.93v1h102.7v-1h-24zM63.5 39.26h35.54v1.03H63.5zm40.87-4.06h16.36v1.03h-16.36zM63.5 37.23h35.54v1.03H63.5zm40.87 0h16.36v1.03h-16.36zm21.7 0h102.71v1.03H126.07zM63.5 35.2h35.54v1.03H63.5zm40.87 4.06h16.36v1.03h-16.36zM204.8 25.2h23.98v1H204.8zm-78.73 10h102.71v1.03H126.07zm78.73-8h23.98v1H204.8zm0 2h23.98v1H204.8zm0 2h23.98v1H204.8zm-70.24-6h13.88v1h-13.88zm-11.98 0h6.44v1h-6.44zm-18.21 8.01h16.36v.99h-16.36zM98 26.2h4.21c.15-.33.29-.67.43-1h-4.5c-.04.34-.14.68-.14 1zm66.55 0H171c-.11-.32-.21-.66-.3-1h-6.88zm29.74-1c-.1.34-.2.68-.31 1h5.28v-1zm-117.84 1h2.78c-.07-.32-.12-.66-.17-1h-2.48c-.04.34-.07.68-.13 1zm-12.95 8H99v-1h-7.39a12.36 12.36 0 0 1-3.07.37 11.06 11.06 0 0 1-2.87-.37H71.35a7.36 7.36 0 0 1-2.34.37 7.9 7.9 0 0 1-2.44-.37h-3.13c0 .36.06.6.06.71zM0 31.2h32.29v1H0zm167.37 21.37a1.53 1.53 0 0 0 1.33-.69 3.21 3.21 0 0 0 .48-1.88 3.14 3.14 0 0 0-.48-1.88 1.59 1.59 0 0 0-1.35-.65 1.76 1.76 0 0 0-1.45.56 2.88 2.88 0 0 0-.46 1.76V50a3.28 3.28 0 0 0 .46 2 1.74 1.74 0 0 0 1.47.57zM161.23 48a1.46 1.46 0 0 0-1.19-.5 1.61 1.61 0 0 0-1.25.51 2.41 2.41 0 0 0-.55 1.42h3.41a2.16 2.16 0 0 0-.42-1.43zM0 27.2h32.29v1H0zm29.51 23.27a1.13 1.13 0 0 0-.52 1 1 1 0 0 0 .33.82 1.32 1.32 0 0 0 .91.28 2 2 0 0 0 1.44-.51 1.83 1.83 0 0 0 .53-1.41v-.59h-1a3.74 3.74 0 0 0-1.69.41zM58.05 33.2h-5.1v.01h-5.52v-.01h-9.6v.01h-5.54v-.01H0v1h58.05v-1zM0 25.2h32.29v1H0zm146.86 27.38a2 2 0 0 0 1.45-.51 1.86 1.86 0 0 0 .53-1.41v-.59h-1a3.74 3.74 0 0 0-1.7.36 1.11 1.11 0 0 0-.52 1 1 1 0 0 0 .33.82 1.29 1.29 0 0 0 .91.33zm58.71-1.27a.85.85 0 0 0-.4-.77 2.76 2.76 0 0 0-1.33-.24H202v2.15h1.82q1.75 0 1.75-1.14zm-.57-2.09a.79.79 0 0 0 .37-.74.7.7 0 0 0-.36-.67 2.47 2.47 0 0 0-1.11-.2H202v1.84h1.68a2.66 2.66 0 0 0 1.32-.23zm-8.74 3.35a1.77 1.77 0 0 0 1.48-.65 3.15 3.15 0 0 0 .5-1.91 3.06 3.06 0 0 0-.5-1.89 1.78 1.78 0 0 0-1.49-.65 1.72 1.72 0 0 0-1.46.64 3.06 3.06 0 0 0-.5 1.9 3.1 3.1 0 0 0 .5 1.9 1.75 1.75 0 0 0 1.47.66zm-151.34-5.1a1.73 1.73 0 0 0-1.46.64 3.89 3.89 0 0 0 0 3.8 1.72 1.72 0 0 0 1.47.66 1.77 1.77 0 0 0 1.47-.65 3.15 3.15 0 0 0 .5-1.91 3.06 3.06 0 0 0-.5-1.89 1.78 1.78 0 0 0-1.48-.65zm136.63 5.11a2 2 0 0 0 1.45-.51 1.86 1.86 0 0 0 .53-1.41v-.59h-1a3.71 3.71 0 0 0-1.7.36 1.11 1.11 0 0 0-.52 1 1 1 0 0 0 .33.82 1.29 1.29 0 0 0 .91.33zM0 39.26h58.05v1.03H0zm0-4.06h58.05v1.03H0zm0 2.03h58.05v1.03H0zm0-8.03h32.29v1H0z"/><path class="cls-1" d="M63.5 42h-5.45v-.7H0v17.05h228.77V41.29H63.5zm-39.77 9.9a1.68 1.68 0 0 0 1.44.64 4.47 4.47 0 0 0 1.67-.35v.87a3.54 3.54 0 0 1-1.65.34 2.76 2.76 0 0 1-2.19-.88 3.56 3.56 0 0 1-.78-2.46 3.65 3.65 0 0 1 .78-2.53 2.81 2.81 0 0 1 2.24-.9 5.11 5.11 0 0 1 .95.1 3.27 3.27 0 0 1 .73.24l-.3.84a4.91 4.91 0 0 0-.71-.22 3.75 3.75 0 0 0-.69-.08c-1.32 0-2 .84-2 2.53a3.06 3.06 0 0 0 .51 1.85zm9.46 1.38h-.73l-.2-.92a2.76 2.76 0 0 1-1 .83 3.05 3.05 0 0 1-1.21.21 2.13 2.13 0 0 1-1.52-.5 1.8 1.8 0 0 1-.53-1.43c0-1.32 1.05-2 3.16-2.07h1.11V49a1.64 1.64 0 0 0-.34-1.13 1.33 1.33 0 0 0-1.05-.37A4.36 4.36 0 0 0 29 48l-.3-.76a4.77 4.77 0 0 1 1.06-.41 4.48 4.48 0 0 1 1.15-.15 2.52 2.52 0 0 1 1.73.52 2.19 2.19 0 0 1 .56 1.66zm7 0h-1V47.6h-2a22.72 22.72 0 0 1-.45 3.4 4.55 4.55 0 0 1-.74 1.78 1.39 1.39 0 0 1-1.15.58 1.76 1.76 0 0 1-.52-.07v-.74a1 1 0 0 0 .3 0c.46 0 .82-.48 1.09-1.45a23 23 0 0 0 .61-4.39h3.82zm7-.77a2.8 2.8 0 0 1-2.22.89 2.87 2.87 0 0 1-1.61-.4 2.69 2.69 0 0 1-1-1.18 4.17 4.17 0 0 1-.42-1.82 3.62 3.62 0 0 1 .8-2.49 2.83 2.83 0 0 1 2.26-.88 2.78 2.78 0 0 1 2.18.91 4.2 4.2 0 0 1 0 5zm8.23.77h-1v-2.95h-3.7v2.94h-1v-6.52h1v2.73h3.65v-2.73h1zm145.7-6.52h2.86c1.62 0 2.43.55 2.43 1.64a1.23 1.23 0 0 1-.37 1 2 2 0 0 1-1 .44v.05a2.13 2.13 0 0 1 1.22.49 1.38 1.38 0 0 1 .39 1 1.66 1.66 0 0 1-.67 1.4 3.28 3.28 0 0 1-2 .49h-2.87zm-7 .77a3.13 3.13 0 0 1 4.39 0 4.24 4.24 0 0 1 0 5 2.83 2.83 0 0 1-2.22.89 2.87 2.87 0 0 1-1.55-.41 2.58 2.58 0 0 1-1.05-1.18 4 4 0 0 1-.37-1.79 3.57 3.57 0 0 1 .75-2.52zm-8.41 5a1 1 0 0 0 .3 0c.45 0 .82-.48 1.09-1.45a23.83 23.83 0 0 0 .61-4.39h3.82v6.52h-1V47.6h-2a24.16 24.16 0 0 1-.45 3.36 4.7 4.7 0 0 1-.74 1.82 1.4 1.4 0 0 1-1.16.58 1.74 1.74 0 0 1-.51-.07zm-3.21-3.15h1.1V49a1.64 1.64 0 0 0-.33-1.13 1.33 1.33 0 0 0-1.05-.37 4.36 4.36 0 0 0-1.85.5l-.3-.76a4.88 4.88 0 0 1 1-.41 4.62 4.62 0 0 1 1.16-.15 2.49 2.49 0 0 1 1.72.52 2.15 2.15 0 0 1 .57 1.66v4.45h-.74l-.19-.92h-.05a2.85 2.85 0 0 1-1 .83 3.09 3.09 0 0 1-1.21.21 2.13 2.13 0 0 1-1.52-.5 1.8 1.8 0 0 1-.56-1.42c.03-1.36 1.09-2.05 3.2-2.11zM172 46.75h.92v5.56l3.53-5.56h1.23v6.52h-.92v-5.54l-3.52 5.54H172zm-7.53 0h.8l.14.89a2.39 2.39 0 0 1 .89-.77 2.7 2.7 0 0 1 1.16-.24 2.4 2.4 0 0 1 2 .89 3.91 3.91 0 0 1 .74 2.48 3.85 3.85 0 0 1-.72 2.49 2.4 2.4 0 0 1-2 .89 2.76 2.76 0 0 1-1.16-.23 2.29 2.29 0 0 1-.89-.72h-.07a8.25 8.25 0 0 1 .07 1.08v2.69h-1zm-6.49.81a2.58 2.58 0 0 1 2.09-.93 2.47 2.47 0 0 1 1.94.81 3.13 3.13 0 0 1 .71 2.13v.62h-4.49a2.59 2.59 0 0 0 .58 1.75 2 2 0 0 0 1.55.59 5.32 5.32 0 0 0 2.08-.44V53a5.74 5.74 0 0 1-1 .33 6.08 6.08 0 0 1-1.13.09 3 3 0 0 1-2.28-.88 3.38 3.38 0 0 1-.84-2.44 3.79 3.79 0 0 1 .81-2.54zm-6.85-.81h5.2v.85h-2.13v5.67h-1V47.6h-2.1zm-3.36 2.65h1.1V49a1.64 1.64 0 0 0-.33-1.13 1.33 1.33 0 0 0-1.05-.37 4.36 4.36 0 0 0-1.85.5l-.3-.76a4.88 4.88 0 0 1 1-.41 4.62 4.62 0 0 1 1.16-.15 2.49 2.49 0 0 1 1.72.52 2.15 2.15 0 0 1 .57 1.66v4.45h-.74l-.19-.92h-.05a2.76 2.76 0 0 1-1 .83 3.09 3.09 0 0 1-1.21.21 2.13 2.13 0 0 1-1.52-.5 1.8 1.8 0 0 1-.55-1.42c.07-1.36 1.12-2.05 3.23-2.11zm-11.69-2.64h1.2L139 50.9a14.77 14.77 0 0 1 .47 1.42l.19-.55.25-.7 1.77-4.31h1.26v6.51H142v-5.38l-.12.34-.34.91-1.69 4.13h-.82l-1.69-4.14a11.84 11.84 0 0 1-.43-1.24v5.38h-.88zm-10.37 0h1.12l1.72 2.5 1.71-2.5h1.12l-2.27 3.19 2.39 3.33h-1.12l-1.83-2.64-1.85 2.64h-1.11l2.41-3.34zm-2.45 0h1v6.52h-1zm-6.3 0h1v2.7h1.78a3 3 0 0 1 1.84.46 1.64 1.64 0 0 1 .6 1.38 1.78 1.78 0 0 1-.63 1.48 2.94 2.94 0 0 1-1.87.5H117zm-7.79 0h1v2.73h3.65v-2.74h1v6.52h-1v-2.94h-3.65v2.94h-1zm-7.59 0h1v2.38c0 .76.43 1.15 1.3 1.15a3.29 3.29 0 0 0 1-.17 5.1 5.1 0 0 0 1.11-.57v-2.8h1v6.52h-1v-3a4.62 4.62 0 0 1-1.15.61 4.11 4.11 0 0 1-1.21.17 2.18 2.18 0 0 1-1.53-.51 1.79 1.79 0 0 1-.55-1.39zm-6.75.77a3.13 3.13 0 0 1 4.39 0A3.63 3.63 0 0 1 100 50a3.58 3.58 0 0 1-.8 2.49 2.83 2.83 0 0 1-2.22.89 2.87 2.87 0 0 1-1.54-.38 2.63 2.63 0 0 1-1-1.18A4 4 0 0 1 94 50a3.62 3.62 0 0 1 .82-2.48zm-8.41 5a1 1 0 0 0 .3 0c.45 0 .82-.48 1.09-1.45a23.83 23.83 0 0 0 .61-4.39h3.82v6.52h-1V47.6h-2a24.16 24.16 0 0 1-.42 3.4 4.7 4.7 0 0 1-.74 1.82 1.4 1.4 0 0 1-1.16.58 1.74 1.74 0 0 1-.51-.07zm-5.53-5a2.57 2.57 0 0 1 2.11-.9 2.44 2.44 0 0 1 1.94.81 3.09 3.09 0 0 1 .72 2.13v.62h-4.5a2.64 2.64 0 0 0 .58 1.75 2 2 0 0 0 1.56.59 5.32 5.32 0 0 0 2.08-.44V53a5.74 5.74 0 0 1-1 .33 6.08 6.08 0 0 1-1.13.09 3 3 0 0 1-2.28-.88 3.38 3.38 0 0 1-.84-2.44 3.79 3.79 0 0 1 .75-2.54zm-8.25 4.86h.51a8.48 8.48 0 0 0 1.25-2.54 10.86 10.86 0 0 0 .47-3.13h3.3v5.67h.94v3.11h-1v-2.23h-4.53v2.26h-1zm-5.39-5.67h5.21v.85h-2.13v5.67h-1V47.6h-2.1zM66.37 50a3.63 3.63 0 0 1-.8 2.49 2.83 2.83 0 0 1-2.22.89 2.93 2.93 0 0 1-1.56-.38 2.61 2.61 0 0 1-1-1.18 4 4 0 0 1-.41-1.82 3.57 3.57 0 0 1 .8-2.49 3.13 3.13 0 0 1 4.39 0 3.63 3.63 0 0 1 .8 2.49z"/><path class="cls-1" d="M77.21 47.53h-1.46a10.82 10.82 0 0 1-.51 2.68 7.46 7.46 0 0 1-1.08 2.21h3zm6.93.47a1.47 1.47 0 0 0-1.19-.5 1.61 1.61 0 0 0-1.25.5 2.35 2.35 0 0 0-.55 1.42h3.41a2.16 2.16 0 0 0-.42-1.42zm-22.24.11a3.06 3.06 0 0 0-.5 1.9 3.1 3.1 0 0 0 .5 1.9 1.75 1.75 0 0 0 1.47.66 1.77 1.77 0 0 0 1.48-.65 3.15 3.15 0 0 0 .5-1.91 3.06 3.06 0 0 0-.5-1.89 1.78 1.78 0 0 0-1.49-.65 1.72 1.72 0 0 0-1.46.64zM97 52.57a1.77 1.77 0 0 0 1.48-.65A3.15 3.15 0 0 0 99 50a3.06 3.06 0 0 0-.5-1.89 1.78 1.78 0 0 0-1.5-.64 1.73 1.73 0 0 0-1.46.64A3.06 3.06 0 0 0 95 50a3.1 3.1 0 0 0 .5 1.9 1.75 1.75 0 0 0 1.5.67zM0 0v24.2h32.29V7.1H53v17.1h5.1V13.25h4.43l.77 2.59h.25a6.29 6.29 0 0 1 5.66-3 6.47 6.47 0 0 1 5.53 2.73q2 2.73 2 7.59v1H79v-1q0-4.89 2.55-7.6a9.37 9.37 0 0 1 7.18-2.72 10.14 10.14 0 0 1 5.07 1.25 8.36 8.36 0 0 1 3.37 3.59 12 12 0 0 1 1.18 5.48v1H103a60.3 60.3 0 0 0 2.1-5.95 70.94 70.94 0 0 0 2.27-11.11h15.21v17.1H129V7.1h15v4.54h-9.5v5.73h8.84v4.54h-8.84v2.29h13.88V7.1H154v12.65l9.33-12.65h5.9l-9.52 12.54 3.36 4.56h7.38a20.27 20.27 0 0 1-.39-4.11q0-6.52 3.22-10t9.24-3.44q6 0 9.2 3.47t3.19 10a20.73 20.73 0 0 1-.38 4.08h4.73V7.1h8.34c3.17 0 5.57.69 7.22 2.05a7.44 7.44 0 0 1 2.48 6.1 8 8 0 0 1-2.64 6.44q-2.62 2.23-7.49 2.23h-2.37v.28h24V0zm121.18 51.35a.89.89 0 0 0-.37-.8 2.23 2.23 0 0 0-1.24-.25h-1.64v2.15h1.68c1.04 0 1.57-.37 1.57-1.1z"/></g></g></svg>