<svg xmlns="http://www.w3.org/2000/svg" viewBox="0 0 131.71 20.08"><g data-name="Слой 2"><path d="M129.33 15.29a2.16 2.16 0 0 1 1.17.32 2.3 2.3 0 0 1 .89.86 2.73 2.73 0 0 1 .32 1.21 2.49 2.49 0 0 1-.32 1.18 1.92 1.92 0 0 1-.89.89 2.49 2.49 0 0 1-1.17.33 2.79 2.79 0 0 1-1.22-.33 2 2 0 0 1-.85-.89 2.1 2.1 0 0 1-.32-1.18 2.29 2.29 0 0 1 .32-1.21 2.47 2.47 0 0 1 2.07-1.18zm0 .41a2.09 2.09 0 0 0-1 .24 1.84 1.84 0 0 0-.76.73 2.26 2.26 0 0 0-.29 1 2.14 2.14 0 0 0 .29 1 1.92 1.92 0 0 0 .73.77 2.18 2.18 0 0 0 1 .24 2.2 2.2 0 0 0 1-.24 2.57 2.57 0 0 0 .77-.77 2 2 0 0 0 .24-1 1.84 1.84 0 0 0-.28-1 1.61 1.61 0 0 0-.73-.73 2.2 2.2 0 0 0-1-.24zm-1.06 3.3v-2.57h.9a2.27 2.27 0 0 1 .64.08.69.69 0 0 1 .33.24.73.73 0 0 1-.61 1.09.37.37 0 0 1 .2.17 2 2 0 0 1 .41.48l.28.53h-.49l-.24-.41a1.62 1.62 0 0 0-.44-.6c0-.09-.17-.09-.33-.09h-.24V19zm.41-1.46h.53a.69.69 0 0 0 .48-.12.38.38 0 0 0 .12-.28.46.46 0 0 0-.08-.21.55.55 0 0 0-.16-.12 1 1 0 0 0-.41 0h-.48v.77z"/><path d="M113.83 19.87V8h-5.94V0h22.21v8h-5.95v11.87zm-59.66-.24L60.52 0h15.69l6.43 19.87H72.33l-.77-2.51h-6.27l-.81 2.51H42.64l-4.74-6.2v6.2H27.75V0h17.52c3 0 4.12.08 5.58.77 1.62.69 2.63 2.11 2.67 4.79a5.25 5.25 0 0 1-2.63 5 9.61 9.61 0 0 1-3.44 1.05l6.72 8zm12.21-7.87h4l-1.81-5.84-.16-.92h-.09l-.16.93-1.78 5.84zM0 19.87V0h9.83v7.75L14.4 0h12.14l-8.21 10.22 7.88 9.65H14.85l-4.45-5.72-.49-.89v6.61zm84 0V0h22v7.18H94.33v1.66h11.74v6H94.33v5zM38 5.56v3.93h3a3.53 3.53 0 0 0 2-.65 1.87 1.87 0 0 0 .61-1.42A1.79 1.79 0 0 0 43 6a2.27 2.27 0 0 0-1.54-.48z" fill="#cc2229"/></g></svg>