<svg xmlns="http://www.w3.org/2000/svg" viewBox="0 0 69.41 77.78"><defs><style>.cls-1{fill:none;stroke:#000;stroke-miterlimit:10;stroke-width:3px}</style></defs><g id="Слой_2" data-name="Слой 2"><g id="Слой_1-2" data-name="Слой 1"><path class="cls-1" d="M35.33 71.18H4.5a3 3 0 0 1-3-3V9.64a3 3 0 0 1 3-3h24.82m4.75-.3h30.84a3 3 0 0 1 3 3v58.54a3 3 0 0 1-3 3H40.09"/><rect class="cls-1" x="14.25" y="18.77" width="40.65" height="39.67" rx="4" ry="4"/><path d="M39.15 1.5l-5.34 5.14 5.34 5.03M30 76.28l5.33-5.14L30 66.11" stroke-linecap="round" fill="none" stroke="#000" stroke-miterlimit="10" stroke-width="3"/><path d="M20.11 43.28V31.9h4a5.29 5.29 0 0 1 3.14.79A2.73 2.73 0 0 1 28.3 35a2.52 2.52 0 0 1-.43 1.47 2.4 2.4 0 0 1-1.19.93 2.41 2.41 0 0 1 1.37.89 2.57 2.57 0 0 1 .51 1.62 3 3 0 0 1-1 2.49 4.72 4.72 0 0 1-3 .86zm2.34-6.61h1.73c1.19 0 1.78-.5 1.78-1.42a1.31 1.31 0 0 0-.45-1.11 2.34 2.34 0 0 0-1.42-.34h-1.64zm0 1.65v3.07h2a2 2 0 0 0 1.3-.39 1.36 1.36 0 0 0 .47-1.09 1.44 1.44 0 0 0-1.62-1.59zM33.81 37l2.37-5.13h2.56L35 39.15v4.13h-2.38v-4.13l-3.73-7.25h2.57zM49 43.28h-2.32l-4.56-7.49v7.49h-2.34V31.9h2.34l4.57 7.5v-7.5H49z"/></g></g></svg>