<svg xmlns="http://www.w3.org/2000/svg" viewBox="0 0 67.93 66.15"><g data-name="Слой 2"><g data-name="Слой 1"><path d="M64.93 19.25v43.9H3v-43.9h61.93m3-3H0v47.1a2.8 2.8 0 0 0 2.81 2.8h62.31a2.8 2.8 0 0 0 2.81-2.8v-47.1z"/><rect x="15.46" y="21.96" width="7" height="7" rx="1" ry="1"/><rect x="25.46" y="21.96" width="7" height="7" rx="1" ry="1"/><rect x="35.46" y="21.96" width="7" height="7" rx="1" ry="1"/><rect x="45.46" y="21.96" width="7" height="7" rx="1" ry="1"/><rect x="46.46" width="5" height="7.53" rx="2.5" ry="2.5"/><rect x="16.46" width="5" height="7.53" rx="2.5" ry="2.5"/><path d="M65.09 5.13H52.45A3.49 3.49 0 0 1 49 8.53a3.5 3.5 0 0 1-3.49-3.4h-23A3.49 3.49 0 0 1 19 8.53a3.5 3.5 0 0 1-3.49-3.4H2.84A2.84 2.84 0 0 0 0 8v8.28h67.93V8a2.84 2.84 0 0 0-2.84-2.87z"/><rect x="15.46" y="31.96" width="7" height="7" rx="1" ry="1"/><rect x="25.46" y="31.96" width="7" height="7" rx="1" ry="1"/><rect x="35.46" y="31.96" width="7" height="7" rx="1" ry="1"/><rect x="45.46" y="31.96" width="7" height="7" rx="1" ry="1"/><rect x="15.46" y="41.96" width="7" height="7" rx="1" ry="1"/><rect x="25.46" y="41.96" width="7" height="7" rx="1" ry="1"/><rect x="35.46" y="41.96" width="7" height="7" rx="1" ry="1"/><rect x="45.46" y="41.96" width="7" height="7" rx="1" ry="1"/><rect x="45.46" y="51.96" width="7" height="7" rx="1" ry="1"/><rect x="35.46" y="51.96" width="7" height="7" rx="1" ry="1"/></g></g></svg>