<svg xmlns="http://www.w3.org/2000/svg" viewBox="0 0 512 512"><path d="M256 0C114.497 0 0 114.507 0 256c0 141.503 114.508 256 256 256 141.503 0 256-114.507 256-256C512 114.497 397.492 0 256 0zm0 472c-119.393 0-216-96.615-216-216 0-119.393 96.616-216 216-216 119.393 0 216 96.615 216 216 0 119.393-96.616 216-216 216z"/><path d="M366.29 298.85L276 244.676V96c0-11.046-8.954-20-20-20s-20 8.954-20 20v160a20.001 20.001 0 0 0 9.71 17.15l100 60c9.471 5.683 21.758 2.611 27.439-6.86 5.684-9.472 2.613-21.757-6.859-27.44z"/></svg>