<svg xmlns="http://www.w3.org/2000/svg" viewBox="0 0 512 512"><path d="M358.614 68.408H332.96c-12.075 0-22.184 8.565-24.579 19.938-19.694 9.853-116.345 55.616-243.614 72.367-7.147.941-13.284 4.825-17.252 10.308H25.119C11.268 171.022 0 182.29 0 196.141v51.307c0 13.851 11.268 25.119 25.119 25.119h22.398c3.967 5.483 10.105 9.368 17.251 10.308 1.279.169 2.549.346 3.823.521l39.388 141.798c3.009 10.831 12.961 18.396 24.203 18.396h46.829l.026.002.031-.002h8.524a8.017 8.017 0 0 0 0-16.034h-2.457l-35.771-128.768c84.108 20.495 143.984 48.934 159.018 56.455 2.394 11.373 12.504 19.938 24.579 19.938h25.653c13.851 0 25.119-11.268 25.119-25.119V93.527c0-13.851-11.268-25.119-25.119-25.119zM42.756 256.533H25.119c-5.01 0-9.086-4.076-9.086-9.086V196.14c0-5.01 4.076-9.086 9.086-9.086h17.637v69.479zm125.737 171.023h-36.311a9.111 9.111 0 0 1-8.753-6.654L85.945 285.971a798.956 798.956 0 0 1 45.631 8.69l36.917 132.895zm199.206-77.494c0 5.01-4.076 9.086-9.086 9.086H332.96c-5.01 0-9.086-4.076-9.086-9.086V161.94a8.017 8.017 0 0 0-16.034 0v175.216c-31.563-14.988-123.577-54.724-240.981-70.177-4.602-.605-8.071-4.482-8.071-9.017v-72.335c0-4.535 3.47-8.411 8.071-9.017 117.404-15.452 209.418-55.189 240.981-70.176v21.301a8.017 8.017 0 0 0 16.034 0V93.527c0-5.01 4.076-9.086 9.086-9.086h25.653c5.01 0 9.086 4.076 9.086 9.086v256.535zm136.284-136.284h-85.512a8.017 8.017 0 0 0 0 16.034h85.512a8.017 8.017 0 0 0 0-16.034zm-18.285-80.653a8.016 8.016 0 0 0-10.526-4.21l-8.552 3.665a8.019 8.019 0 1 0 3.162 15.386 7.99 7.99 0 0 0 3.154-.65l8.552-3.665a8.016 8.016 0 0 0 4.21-10.526zm-34.205 14.659a8.017 8.017 0 0 0-10.526-4.21l-25.653 10.995a8.016 8.016 0 0 0-4.21 10.526 8.02 8.02 0 0 0 7.372 4.86 7.99 7.99 0 0 0 3.154-.65l25.653-10.995a8.016 8.016 0 0 0 4.21-10.526zm29.994 152.153l-8.576-3.675a8.017 8.017 0 0 0-6.316 14.736l8.576 3.675a7.99 7.99 0 0 0 3.154.65 8.018 8.018 0 0 0 7.372-4.861 8.013 8.013 0 0 0-4.21-10.525zm-34.216-14.664l-25.641-10.989a8.017 8.017 0 0 0-6.316 14.736l25.641 10.989a7.99 7.99 0 0 0 3.154.65 8.018 8.018 0 0 0 3.162-15.386z"/></svg>