<svg xmlns="http://www.w3.org/2000/svg" viewBox="0 0 67.65 67.75"><defs><style>.cls-2{fill:none;stroke:#000;stroke-miterlimit:10;stroke-width:.25px}</style></defs><g id="Слой_2" data-name="Слой 2"><g id="Слой_1-2" data-name="Слой 1"><path d="M23.9 50.41l8-.11m-16.52 0l-9.27.12m60-35.54V9.25a3 3 0 0 0-3-3h-54a3 3 0 0 0-3 3v54a3 3 0 0 0 3 3h54a3 3 0 0 0 3-3V26.67M53.77 36.89h12.38m-21.75 0H33.72a1.68 1.68 0 0 0-1.8 1.54v27.82M6.15 26.94h23.39a1.2 1.2 0 0 0 1.29-1.09v-3.52m0-16.08v8.17" stroke-width="3" fill="none" stroke="#000"/><path d="M66.15 1.22L62.83 0v2.44l3.32-1.22zm-61.11 0l3.32 1.22V0L5.04 1.22z"/><path class="cls-2" d="M8.36 1.22h54.47"/><path d="M1.22 67.44l1.22-3.32H0l1.22 3.32zm0-61.11L0 9.65h2.44L1.22 6.33z"/><path class="cls-2" d="M1.22 9.65v54.47"/></g></g></svg>