<svg xmlns="http://www.w3.org/2000/svg" width="612" height="612"><path d="M597.656 4.781H14.344C6.417 4.781 0 11.207 0 19.125v459c0 7.918 6.417 14.344 14.344 14.344H344.25c7.928 0 14.344-6.426 14.344-14.344s-6.416-14.344-14.344-14.344H229.5v-38.25c0-7.918-6.417-14.344-14.344-14.344s-14.344 6.426-14.344 14.344v38.25H28.688v-229.5h172.125v76.5c0 7.918 6.417 14.344 14.344 14.344s14.344-6.426 14.344-14.344v-19.125h181.688c7.928 0 14.344-6.426 14.344-14.344s-6.416-14.344-14.344-14.344H229.5V90.844c0-7.918-6.417-14.344-14.344-14.344s-14.344 6.426-14.344 14.344v114.75H28.688V33.469h554.625v229.5h-76.5v-38.25c0-7.918-6.416-14.344-14.344-14.344s-14.344 6.426-14.344 14.344v52.594c0 7.918 6.416 14.344 14.344 14.344h90.844v286.875H459v-95.625c0-7.918-6.416-14.344-14.344-14.344s-14.344 6.426-14.344 14.344v109.969c0 7.918 6.416 14.344 14.344 14.344h153c7.928 0 14.344-6.426 14.344-14.344V19.125c0-7.918-6.416-14.344-14.344-14.344z"/></svg>