<svg xmlns="http://www.w3.org/2000/svg" viewBox="0 0 384 384"><path d="M380 290.5H264.577C275.341 279.591 282 264.621 282 248.121V200.5c0-15.246-2.442-29.931-6.939-43.694l20.387-20.387a3.998 3.998 0 0 0 0-5.657l-40.28-40.27c-11.595-11.597-28.437-16.268-44.318-12.44C190.246 66.252 166.397 59.5 141 59.5c-77.748 0-141 63.252-141 141v47.621C0 281.414 27.086 308.5 60.379 308.5H164v8a4 4 0 0 0 4 4h62a4 4 0 0 0 4-4v-9.281a60.018 60.018 0 0 0 20.848-8.719H376v22a4 4 0 0 0 8 0v-26a4 4 0 0 0-4-4zM249.512 96.148l37.451 37.442-14.904 14.904c-10.314-25.902-28.098-48.044-50.673-63.767 10.396-.127 20.596 3.891 28.126 11.421zM8 248.121V200.5c0-73.336 59.663-133 133-133s133 59.664 133 133v47.621c0 28.882-23.497 52.379-52.379 52.379H60.379C31.497 300.5 8 277.003 8 248.121zM226 312.5h-54v-4s52.552-.072 54-.176v4.176z"/><path d="M233 195c0-50.729-41.271-92-92-92s-92 41.271-92 92 41.271 92 92 92 92-41.271 92-92zm-92 84c-46.317 0-84-37.682-84-84s37.683-84 84-84 84 37.682 84 84-37.683 84-84 84z"/><path d="M141 122.063c-40.218 0-72.938 32.719-72.938 72.937 0 40.217 32.72 72.936 72.938 72.936s72.936-32.719 72.936-72.936c0-40.218-32.718-72.937-72.936-72.937zm0 137.873c-35.807 0-64.938-29.13-64.938-64.936 0-35.806 29.131-64.937 64.938-64.937 35.806 0 64.936 29.131 64.936 64.937s-29.13 64.936-64.936 64.936z"/></svg>